<svg xmlns="http://www.w3.org/2000/svg" style="width:0; height:0; visibility:hidden;">
    <symbol id="icon-arrow-left" viewBox="-293.1 390 21.1 20.7">
      <title>back</title><path d="M-272 399.5h-18l9-8.5-1-1-11.1 10.3 11.1 10.3 1-1.1-9.2-8.5h18.2z"/>
    </symbol>
    <symbol id="icon-close" viewBox="-15 205.9 413 413">
      <path d="M212.7 412.4l180.9-180.9c5.9-5.9 5.9-15.4 0-21.2-5.9-5.9-15.4-5.9-21.2 0L191.5 391.2 10.6 210.3c-5.9-5.9-15.4-5.9-21.2 0-5.9 5.9-5.9 15.4 0 21.2l180.9 180.9-180.9 180.9c-5.9 5.9-5.9 15.4 0 21.2 2.9 2.9 6.8 4.4 10.6 4.4s7.7-1.5 10.6-4.4l180.9-180.9 180.9 180.9c2.9 2.9 6.8 4.4 10.6 4.4s7.7-1.5 10.6-4.4c5.9-5.9 5.9-15.4 0-21.2L212.7 412.4z"/>
    </symbol>
    <symbol id="icon-filter" viewBox="-55.8 155.9 507.8 483.1">
      <path d="M269.7 471.3c30.9-33.4 50.1-78.2 50.1-127.5 0-103.4-84.1-187.9-187.8-187.9S-55.8 240.3-55.8 343.8 28.3 531.6 132 531.6c42.2 0 81-13.9 112.5-37.4l139.7 139.7c3.4 3.4 7.6 5.1 11.9 5.1s8.8-1.7 11.9-5.1c6.5-6.5 6.5-17.3 0-24.1L269.7 471.3zM-21.8 343.8C-21.8 259 47 189.9 132 189.9c84.7 0 153.9 68.9 153.9 153.9S217 497.6 132 497.6-21.8 428.5-21.8 343.8z"/><path d="M437 458.3H328c-8.3 0-15-6.7-15-15s6.7-15 15-15h109c8.3 0 15 6.7 15 15s-6.7 15-15 15zM437 277.6h-89c-8.3 0-15-6.7-15-15s6.7-15 15-15h89c8.3 0 15 6.7 15 15s-6.7 15-15 15zM437 367.9h-79c-8.3 0-15-6.7-15-15s6.7-15 15-15h79c8.3 0 15 6.7 15 15s-6.7 15-15 15zM437 548.6h-50c-8.3 0-15-6.7-15-15s6.7-15 15-15h50c8.3 0 15 6.7 15 15s-6.7 15-15 15z"/>
    </symbol>
    <symbol id="icon-rotate" viewBox="-50.8 152.4 468.3 488.6">
      <path d="M382.8 403.4H221.3V438l161.6.1-.1 168.3h-.1l-161.5-.1c0 12.7-3.7 24.4-9.7 34.6h171.1c19.1 0 34.7-15.6 34.7-34.7V438.1c.2-19.1-15.4-34.7-34.5-34.7zM152.1 253H-16.1c-19.1 0-34.7 15.6-34.7 34.7v318.6c0 19.1 15.6 34.7 34.7 34.7H152c19.1 0 34.7-15.6 34.7-34.7V287.7c0-19.1-15.5-34.7-34.6-34.7zm-168.2 34.6l168.3.1-.1 284H-16.3l.2-284.1zm65.7 317.8c0-10.1 8.2-18.3 18.3-18.3 10.1 0 18.3 8.2 18.3 18.3 0 10.1-8.2 18.3-18.3 18.3-10.1 0-18.3-8.2-18.3-18.3zM300.8 280.9h-23.1c-1.7 0-3.2 1-3.8 2.6-.6 1.5-.3 3.3.9 4.5l40.4 40.5c1.6 1.6 4.2 1.6 5.8 0l40.4-40.5c1.2-1.2 1.5-3 .9-4.5-.6-1.6-2.1-2.6-3.8-2.6h-23.3c-1.3-71.1-59.4-128.5-130.8-128.5-9.5 0-17.3 7.7-17.3 17.3 0 9.6 7.7 17.3 17.3 17.3 52.4-.1 95.1 41.9 96.4 93.9z"/>
    </symbol>
    <symbol id="icon-tick" viewBox="349.5 -142.5 305 305">
      <path d="M502-142.5c-84.1 0-152.5 68.4-152.5 152.5S417.9 162.5 502 162.5 654.5 94.1 654.5 10 586.1-142.5 502-142.5zm0 280c-70.3 0-127.5-57.2-127.5-127.5S431.7-117.5 502-117.5 629.5-60.3 629.5 10 572.3 137.5 502 137.5z"/><path d="M568-48.5L477.4 42 436 .6c-4.9-4.9-12.8-4.9-17.7 0-4.9 4.9-4.9 12.8 0 17.7l50.2 50.2c2.4 2.4 5.6 3.7 8.8 3.7s6.4-1.2 8.8-3.7l99.4-99.4c4.9-4.9 4.9-12.8 0-17.7-4.7-4.8-12.6-4.8-17.5.1z"/>
    </symbol></svg>