<svg xmlns="http://www.w3.org/2000/svg" width="180" height="18" viewBox="0 0 180 18"><title>Fill 1</title><path d="M7.08 17.29c-1.06 0-2.02-.15-2.88-.47-.87-.32-1.62-.79-2.24-1.41-.63-.62-1.11-1.4-1.45-2.32C.17 12.16 0 11.1 0 9.9V0h1.92v9.78c0 1.85.46 3.27 1.38 4.26.91.98 2.19 1.48 3.83 1.48 1.57 0 2.82-.47 3.74-1.41.93-.94 1.39-2.35 1.39-4.21V0h1.92v9.75c0 1.25-.17 2.35-.51 3.29-.34.94-.82 1.72-1.45 2.36a6.04 6.04 0 0 1-2.23 1.42c-.87.32-1.84.47-2.91.47M21 0h1.8l10.73 13.65V0h1.87v17.03h-1.53l-11-13.97v13.97H21zm21 1.78h13.35V0H42zm5 15.69h1.92V4H47zm24.4-2.18c.81-.37 1.52-.87 2.1-1.5.58-.63 1.04-1.37 1.37-2.21.34-.84.5-1.75.5-2.73v-.04c0-.98-.16-1.89-.5-2.74-.33-.85-.79-1.59-1.39-2.23-.6-.63-1.31-1.13-2.13-1.5-.82-.38-1.72-.56-2.69-.56s-1.87.18-2.69.54c-.82.37-1.52.87-2.1 1.5-.59.63-1.04 1.37-1.38 2.21-.33.85-.5 1.75-.5 2.73v.05c0 .97.17 1.88.5 2.73.34.85.8 1.6 1.4 2.23.6.63 1.31 1.13 2.13 1.51.82.37 1.72.56 2.69.56s1.87-.19 2.69-.55zm-6.28 1.62A8.599 8.599 0 0 1 62.38 15a8.572 8.572 0 0 1-1.76-2.8A9.222 9.222 0 0 1 60 8.85v-.04c0-1.17.21-2.29.63-3.36a8.623 8.623 0 0 1 1.78-2.81c.76-.8 1.68-1.44 2.75-1.92S67.41 0 68.71 0c1.3 0 2.48.24 3.54.71a8.42 8.42 0 0 1 2.73 1.9c.77.81 1.35 1.74 1.77 2.8.41 1.06.62 2.18.62 3.35.01.01.01.03 0 .05a9.1 9.1 0 0 1-.63 3.35 8.792 8.792 0 0 1-1.78 2.81c-.76.8-1.68 1.44-2.75 1.92s-2.25.72-3.55.72c-1.3 0-2.48-.23-3.54-.7zm25.96.38c-1.06 0-2.02-.15-2.89-.47-.86-.32-1.61-.79-2.23-1.41-.63-.62-1.11-1.4-1.45-2.32-.34-.93-.51-1.99-.51-3.19V0h1.92v9.78c0 1.85.46 3.27 1.37 4.26.92.98 2.2 1.48 3.84 1.48 1.57 0 2.82-.47 3.74-1.41.93-.94 1.39-2.35 1.39-4.21V0h1.92v9.75c0 1.25-.17 2.35-.51 3.29-.34.94-.82 1.72-1.45 2.36-.62.63-1.37 1.1-2.24 1.42-.86.32-1.83.47-2.9.47m21.46.32c-1.23 0-2.37-.23-3.41-.68a8.462 8.462 0 0 1-2.7-1.86c-.76-.79-1.35-1.72-1.79-2.79a9.295 9.295 0 0 1-.64-3.43v-.04c0-1.2.22-2.34.64-3.41.44-1.07 1.03-2.01 1.79-2.81.77-.8 1.67-1.43 2.73-1.9 1.05-.46 2.2-.69 3.45-.69.78 0 1.48.07 2.11.2.62.13 1.2.31 1.73.54.54.24 1.03.52 1.49.85.45.34.89.71 1.31 1.11l-1.31 1.41c-.73-.68-1.51-1.24-2.35-1.68-.83-.43-1.84-.65-3-.65-.94 0-1.82.17-2.62.53s-1.5.85-2.09 1.49c-.59.63-1.05 1.37-1.39 2.22-.33.85-.5 1.76-.5 2.74v.05c0 .99.17 1.91.5 2.76.34.85.8 1.59 1.39 2.22.59.64 1.29 1.13 2.09 1.5.8.36 1.68.55 2.62.55 1.16 0 2.17-.22 3.01-.65.85-.43 1.67-1.03 2.48-1.81l1.27 1.24c-.44.45-.9.86-1.37 1.23-.48.36-1 .68-1.55.93-.55.26-1.14.47-1.78.61-.63.15-1.33.22-2.11.22m58.37-2.36c1.07 0 2.04-.17 2.92-.51.88-.34 1.62-.81 2.23-1.41.6-.6 1.07-1.31 1.41-2.13.33-.82.5-1.7.5-2.64v-.05c0-.94-.17-1.82-.5-2.64-.34-.81-.81-1.53-1.41-2.14a6.63 6.63 0 0 0-2.23-1.43c-.88-.35-1.85-.52-2.92-.52h-3.99v13.47zM165 0h5.91c1.33 0 2.55.21 3.66.64 1.11.44 2.07 1.03 2.87 1.79a7.83 7.83 0 0 1 1.86 2.69c.44 1.03.66 2.15.66 3.35v.04c0 1.2-.22 2.32-.66 3.36a7.683 7.683 0 0 1-1.86 2.7c-.8.76-1.76 1.36-2.87 1.8-1.11.44-2.33.66-3.66.66H165zm-27.96 0v7.56H129v1.81h8.04v7.66h1.92V0zM125 17.03h1.92V0H125zm32.5-7.3V8H150v1.73z" fill="#1d1d1b"/><path d="M147.92 15.3V1.73h10.39V0H146v17.03h12.43V15.3z" fill="#1d1d1b"/></svg>