<svg id="Layer_1" xmlns="http://www.w3.org/2000/svg" viewBox="0 0 437.8 42.8"><style>.st0{fill:#333}</style><path class="st0" d="M17.2 42.8c-2.6 0-4.9-.4-7-1.2-2.1-.8-3.9-1.9-5.4-3.4-1.5-1.5-2.7-3.4-3.5-5.7C.4 30.3 0 27.7 0 24.8V.7h4.7v23.8c0 4.5 1.1 8 3.3 10.4 2.2 2.4 5.3 3.6 9.3 3.6 3.8 0 6.9-1.1 9.1-3.4 2.2-2.3 3.4-5.7 3.4-10.2V.7h4.7v23.7c0 3-.4 5.7-1.2 8-.8 2.3-2 4.2-3.5 5.7s-3.3 2.7-5.4 3.5c-2.2.8-4.6 1.2-7.2 1.2zM51.5.7h4.4L82 33.9V.7h4.6v41.4h-3.7L56 8.2v34h-4.6V.7zM101.2.7h32.5V5h-32.5zM115.1 11.4h4.7v30.8h-4.7zM167.6 42.8c-3.2 0-6-.6-8.6-1.7s-4.8-2.7-6.7-4.6c-1.9-2-3.3-4.2-4.3-6.8-1-2.6-1.5-5.3-1.5-8.1v-.1c0-2.8.5-5.6 1.5-8.2 1-2.6 2.5-4.9 4.3-6.8 1.9-2 4.1-3.5 6.7-4.7 2.6-1.2 5.5-1.7 8.6-1.7 3.2 0 6 .6 8.6 1.7 2.6 1.1 4.8 2.7 6.7 4.6 1.9 2 3.3 4.2 4.3 6.8 1 2.6 1.5 5.3 1.5 8.1v.1c0 2.8-.5 5.6-1.5 8.2-1 2.6-2.5 4.9-4.3 6.8-1.9 2-4.1 3.5-6.7 4.7-2.5 1.2-5.4 1.7-8.6 1.7zm.1-4.3c2.4 0 4.5-.4 6.5-1.3s3.7-2.1 5.1-3.6c1.4-1.5 2.5-3.3 3.3-5.4.8-2 1.2-4.3 1.2-6.6v-.1c0-2.4-.4-4.6-1.2-6.7-.8-2.1-1.9-3.9-3.4-5.4-1.5-1.5-3.2-2.8-5.2-3.7-2-.9-4.2-1.4-6.5-1.4-2.4 0-4.5.4-6.5 1.3s-3.7 2.1-5.1 3.6c-1.4 1.5-2.5 3.3-3.3 5.4-.8 2.1-1.2 4.3-1.2 6.6v.1c0 2.4.4 4.6 1.2 6.7.8 2.1 1.9 3.9 3.4 5.4 1.5 1.5 3.2 2.8 5.2 3.7 2 1 4.2 1.4 6.5 1.4zM221.2 42.8c-2.6 0-4.9-.4-7-1.2-2.1-.8-3.9-1.9-5.4-3.4-1.5-1.5-2.7-3.4-3.5-5.7-.8-2.2-1.2-4.8-1.2-7.8V.7h4.7v23.8c0 4.5 1.1 8 3.3 10.4 2.2 2.4 5.3 3.6 9.3 3.6 3.8 0 6.9-1.1 9.1-3.4 2.2-2.3 3.4-5.7 3.4-10.2V.7h4.7v23.7c0 3-.4 5.7-1.2 8-.8 2.3-2 4.2-3.5 5.7s-3.3 2.7-5.4 3.5c-2.4.8-4.7 1.2-7.3 1.2zM274.4 42.8c-3 0-5.8-.6-8.3-1.7-2.5-1.1-4.7-2.6-6.6-4.5-1.9-1.9-3.3-4.2-4.3-6.8-1-2.6-1.6-5.4-1.6-8.3v-.1c0-2.9.5-5.7 1.6-8.3 1-2.6 2.5-4.9 4.3-6.8 1.9-2 4.1-3.5 6.6-4.6 2.6-1.1 5.4-1.7 8.4-1.7 1.9 0 3.6.2 5.1.5 1.5.3 2.9.8 4.2 1.3 1.3.6 2.5 1.3 3.6 2.1s2.2 1.7 3.2 2.7l-3.2 3.4c-1.8-1.7-3.7-3-5.7-4.1-2-1.1-4.5-1.6-7.3-1.6-2.3 0-4.4.4-6.4 1.3s-3.6 2.1-5.1 3.6c-1.4 1.5-2.6 3.3-3.4 5.4-.8 2.1-1.2 4.3-1.2 6.7v.1c0 2.4.4 4.6 1.2 6.7.8 2.1 1.9 3.9 3.4 5.4 1.4 1.5 3.1 2.8 5.1 3.6 2 .9 4.1 1.3 6.4 1.3 2.8 0 5.3-.5 7.3-1.6 2.1-1 4.1-2.5 6-4.4l3.1 3c-1.1 1.1-2.2 2.1-3.3 3-1.2.9-2.4 1.6-3.8 2.3-1.3.6-2.8 1.1-4.3 1.5-1.4.5-3.1.6-5 .6zM401.5.7h14.4c3.2 0 6.2.5 8.9 1.6 2.7 1 5 2.5 7 4.3 2 1.9 3.5 4 4.5 6.5 1.1 2.5 1.6 5.2 1.6 8.1v.1c0 2.9-.5 5.6-1.6 8.2-1.1 2.5-2.6 4.7-4.5 6.6-2 1.9-4.3 3.3-7 4.4-2.7 1.1-5.7 1.6-8.9 1.6h-14.4V.7zm14.3 37.1c2.6 0 5-.4 7.1-1.2 2.1-.8 3.9-2 5.4-3.4 1.5-1.5 2.6-3.2 3.4-5.2.8-2 1.2-4.1 1.2-6.4v-.1c0-2.3-.4-4.4-1.2-6.4-.8-2-2-3.7-3.4-5.2-1.5-1.5-3.3-2.6-5.4-3.5-2.1-.8-4.5-1.3-7.1-1.3h-9.7v32.8h9.7zM333.6.7v18.4H316v4.4h17.6v18.6h4.7V.7zM305 .7h4.7v41.4H305z"/><g><path class="st0" d="M383.2 23.4v-4.2h-16.3v4.2z"/><path class="st0" d="M360.6 37.9v-33h25.2V.7h-29.9v41.4h30.2v-4.2z"/></g></svg>
